Coordinates
version=1
nRows=10
nColumns=22
inDegrees=yes

Units are S.I. units (second, meters, Newtons, ...)
If the header above contains a line with 'inDegrees', this indicates whether rotational values are in degrees (yes) or radians (no).

endheader
time	pelvis_tilt	pelvis_list	pelvis_rotation	pelvis_tx	pelvis_ty	pelvis_tz	hip_flexion_r	hip_adduction_r	hip_rotation_r	knee_angle_r	ankle_angle_r	subtalar_angle_r	hip_flexion_l	hip_adduction_l	hip_rotation_l	knee_angle_l	ankle_angle_l	subtalar_angle_l	lumbar_extension	lumbar_bending	lumbar_rotation
      3.68000000	     -5.15678897	     -3.75408246	    -49.50144142	      0.86669437	      0.84813513	      0.90600598	     -9.41847616	      6.70770221	     11.71761827	    -16.71080578	     26.00295289	     -7.96246788	     30.43404270	    -18.29940562	     -1.70989412	     -7.94173815	      7.10683295	     11.01567064	     -2.05198956	      6.73396072	     23.75506154
      3.69000000	     -5.08299901	     -3.83981106	    -49.71370274	      0.87540251	      0.84638180	      0.91143700	    -10.11851381	      6.42468043	     11.95441870	    -17.01991278	     26.23843725	     -7.55688612	     30.70192275	    -18.35220132	     -2.00428131	     -8.02028368	      7.05424321	     11.05456949	     -2.13775614	      6.62279121	     23.83988810
      3.70000000	     -5.03392148	     -3.92857321	    -49.91849288	      0.88433405	      0.84467285	      0.91685008	    -10.80622893	      6.14308085	     12.23344301	    -17.33339111	     26.40523731	     -7.10202701	     30.99265403	    -18.40993383	     -2.28669872	     -8.36556706	      7.06523952	     10.85650217	     -2.19958179	      6.54865574	     23.89378046
      3.71000000	     -5.00230371	     -4.02037562	    -50.11022144	      0.89353319	      0.84303390	      0.92225234	    -11.50028608	      5.85148818	     12.52274189	    -17.62191888	     26.47245905	     -6.57839571	     31.28324302	    -18.46098713	     -2.54063544	     -8.93687695	      7.11055642	     10.49528331	     -2.23961708	      6.50969018	     23.91543267
      3.72000000	     -4.99144930	     -4.11220281	    -50.29928884	      0.90297651	      0.84146342	      0.92768336	    -12.19505642	      5.55516408	     12.82871149	    -17.88935076	     26.42758702	     -6.05254136	     31.55649359	    -18.51092095	     -2.76445098	     -9.68584323	      7.18659087	     10.07497488	     -2.25018005	      6.50057803	     23.92708697
      3.73000000	     -4.97909533	     -4.17152131	    -50.46621719	      0.91273741	      0.83994914	      0.93314226	    -12.88412722	      5.21186662	     13.10475603	    -18.12861889	     26.27658511	     -5.43414667	     31.79346419	    -18.50599270	     -2.95530328	    -10.54864372	      7.28508676	      9.58162259	     -2.21061239	      6.48358500	     23.88024523
      3.74000000	     -4.98244075	     -4.22918000	    -50.65510011	      0.92270844	      0.83851370	      0.93868323	    -13.57227257	      4.85954168	     13.40628372	    -18.35181425	     26.00915689	     -4.83330012	     31.96780614	    -18.50405987	     -3.13967114	    -11.49624258	      7.38823258	      9.13554753	     -2.14494884	      6.48853696	     23.86766306
      3.75000000	     -4.98975803	     -4.26468788	    -50.85160806	      0.93290787	      0.83713887	      0.94431584	    -14.24968888	      4.48029549	     13.72311496	    -18.56311380	     25.63099228	     -4.23896397	     32.07765369	    -18.47416447	     -3.32856150	    -12.48846452	      7.47656633	      8.76680005	     -2.03773992	      6.48899791	     23.84115977
      3.76000000	     -4.99503729	     -4.26887642	    -51.05812836	      0.94332479	      0.83581118	      0.95004031	    -14.90561865	      4.06432824	     14.04253651	    -18.77232894	     25.15436518	     -3.62981033	     32.12658198	    -18.40595913	     -3.52739822	    -13.51047583	      7.51471078	      8.49075522	     -1.88771471	      6.47356201	     23.81698944
      3.77000000	     -5.00226181	     -4.24384027	    -51.28079844	      0.95391429	      0.83452872	      0.95587934	    -15.53334456	      3.62143849	     14.37438417	    -18.98740402	     24.59667446	     -3.05509446	     32.12952009	    -18.31238565	     -3.74266874	    -14.56431332	      7.45456496	      8.33787306	     -1.69472307	      6.44023437	     23.82164156
